<svg version="1" xmlns="http://www.w3.org/2000/svg" width="933.333" height="933.333" viewBox="0 0 700.000000 700.000000"><path d="M1.8 1.9c0 .3-.2 31.8-.3 69.8L1.4 141l216.1.1c118.8 0 218 .2 220.5.5 9 1 21.7 3.6 30 6 8.9 2.7 29.1 12 32.5 15.1 1.1 1 3.8 3 5.9 4.5 6.5 4.5 17.1 15.5 23.6 24.4 13.4 18.4 24.7 47.7 27.7 71.4.4 3.6.8 45.2.8 92.5 0 78.3-.2 86.8-1.8 95-8.6 43.8-31.2 73.7-69.7 92.1-6.8 3.3-24.9 10.3-26.8 10.4-.4 0-2.3.5-4.2 1-4.9 1.3-10.2 2.2-25.5 4.4-1.6.2-98.9.5-216 .5L1.4 559l.1 69.7v69.8H217c118.5 0 220.7-.4 227-.8 15.3-1 23.4-1.9 34-3.7 3-.5 7.1-1.2 9-1.5 6.8-1.1 27.2-6.5 36.3-9.6 69.5-23.4 120-72.2 150-144.9 7.7-18.7 16-47.2 19.3-66 .2-1.4.7-3.6 1-5 .3-1.4.8-3.9 1-5.5.2-1.7.8-6.4 1.4-10.5 2.2-15.7 2.5-26.7 2.5-103.5 0-94.3-.4-103.1-5.9-133-.4-2.6-1.9-9.9-2.1-10.5-.1-.3-.7-3.2-1.4-6.5-4.5-20.7-16.2-48.9-28.9-70-12.4-20.4-32-43.5-48.1-56.5-2.4-1.9-4.9-4-5.5-4.5-5.3-4.6-20.8-15.4-28.2-19.6-22.7-13-38.5-20.2-60.9-27.7-9.1-3-33.4-9.6-39-10.6-4.3-.7-8.7-1.6-11.1-2.1-1.2-.3-3.7-.7-5.8-1-2-.3-5.3-.7-7.3-1-7.5-1.1-9.9-1.4-15.3-2.1-6.5-.8-436.9-1.3-437.2-.5z"/></svg>